<svg width="260" height="112" xmlns="http://www.w3.org/2000/svg" xmlns:xlink="http://www.w3.org/1999/xlink" xml:space="preserve" overflow="hidden"><defs><clipPath id="clip0"><rect x="796" y="340" width="260" height="112"/></clipPath><clipPath id="clip1"><rect x="796" y="340" width="260" height="112"/></clipPath><clipPath id="clip2"><rect x="796" y="341" width="260" height="111"/></clipPath><clipPath id="clip3"><rect x="796" y="341" width="260" height="111"/></clipPath></defs><g clip-path="url(#clip0)" transform="translate(-796 -340)"><g clip-path="url(#clip1)"><g clip-path="url(#clip2)"><g clip-path="url(#clip3)"><path d="M238.671 0.0597549 234.04 0.0597549C235.633-0.0199183 237.187-0.00995915 238.671 0.0597549Z" fill="#EB9BAA" fill-rule="nonzero" fill-opacity="1" transform="matrix(1 0 0 1.00121 795.21 326.774)"/><path d="M86.3856 0.0597549 81.3264 0.0597549C82.9796 0.0298774 84.6727 0.0298774 86.3856 0.0597549Z" fill="#EB9BAA" fill-rule="nonzero" fill-opacity="1" transform="matrix(1 0 0 1.00121 795.21 326.774)"/><path d="M260.352 11.0248C259.675 12.0506 258.161 12.9967 255.273 13.6938 244.945 16.2035 219.778 32.0884 203.306 51.6183 202.051 53.1022 200.846 54.606 199.711 56.1297 188.995 70.4211 181.237 83.378 169.076 96.0858 162.902 102.539 155.582 108.933 146.16 115.397 146.16 115.397 132.706 125.535 122.936 125.515 113.156 125.495 108.027 113.574 111.433 106.404 111.433 106.404 113.504 99.223 117.876 91.8134 122.249 84.4137 132.775 70.3813 128.353 67.4632 128.353 67.4632 127.716 63.8879 114.042 79.703 100.587 95.2692 68.7579 127.457 38.8705 142.924 38.3726 143.183 37.8846 143.432 37.3966 143.681 33.0942 145.832 29.3795 147.097 26.1926 147.634 25.5452 147.744 24.9178 147.834 24.3103 147.883 23.1351 147.983 22.0296 147.983 21.0138 147.883 20.4561 147.834 19.9183 147.744 19.4104 147.634 16.2135 146.957 13.8631 145.244 12.19 142.924 7.34985 136.181 8.20634 124.29 10.7957 117.418 15.5263 104.949 34.379 71.6162 75.7991 37.9443 75.7991 37.9443 86.0968 31.0526 82.4617 24.8979 78.8366 18.7431 64.2066 24.8481 64.2066 24.8481 64.2066 24.8481 34.379 40.2947 18.5539 57.8029 9.75 67.5429 2.20097 66.9255 0.418284 59.2669-0.0995915 57.0559-0.139428 54.2475 0.418284 50.941 1.39428 45.105 4.20276 37.6854 9.45123 29.1106 9.45123 29.1106 23.6331 11.9908 52.9528 4.02349 59.6652 2.20097 67.1744 0.856487 75.4804 0.298774 77.3925 0.169305 79.3445 0.0896323 81.3363 0.0497957L86.3956 0.0497957C86.9135 0.0497957 87.4413 0.069714 87.9691 0.0896323 87.9691 0.0896323 89.0447 0.0896323 90.7079 0.298774 93.4765 0.647344 97.8586 1.57355 101.543 4.02349 103.734 5.47753 105.676 7.46936 106.892 10.2081 111.383 20.3167 101.723 29.748 101.723 29.748 101.723 29.748 49.9252 79.1752 34.5782 112.947 34.5782 112.947 31.5307 120.685 38.1834 117.866 44.8162 115.058 83.5373 93.8351 114.52 62.5335 114.52 62.5335 129.001 46.0312 138.432 53.4308 147.863 60.8404 132.377 81.0475 132.377 81.0475 132.377 81.0475 114.869 100.577 123.961 109.332 131.142 116.243 148.122 99.4022 169.096 65.7702 174.663 56.8468 180.51 46.7383 186.525 35.584 191.783 25.8241 197.5 18.6037 203.326 13.3154 213.873 3.71476 224.798 0.497957 234.04 0.0597549L238.671 0.0597549C249.656 0.57763 257.295 4.61108 257.295 4.61108 257.295 4.61108 259.416 6.10496 260.352 7.9474 260.85 8.93335 261.019 10.0189 260.352 11.0347L260.352 11.0248Z" fill="#EB9BAA" fill-rule="nonzero" fill-opacity="1" transform="matrix(1 0 0 1.00121 795.21 326.774)"/></g></g></g></g></svg>