<svg width="247" height="141" viewBox="0 0 247 141" fill="none" xmlns="http://www.w3.org/2000/svg">
  <path d="M241.763 12.9665C231.238 15.5233 204.444 32.7441 189.131 53.1484C173.817 73.5573 164.889 91.1029 138.42 109.275C138.42 109.275 125.677 118.88 116.428 118.867C107.161 118.848 102.295 107.564 105.529 100.772C105.529 100.772 107.486 93.9799 111.626 86.9452C115.765 79.9288 125.741 66.6507 121.551 63.888C121.551 63.888 120.956 60.4896 108.003 75.4829C95.0497 90.4717 64.1163 121.73 35.4149 136.069C33.6447 136.952 31.9798 137.679 30.4156 138.26C23.1247 140.963 18.0111 140.51 14.5486 138.26C6.70888 133.169 7.31721 118.871 10.2217 111.201C14.6995 99.3954 32.5516 67.817 71.7822 35.9276C71.7822 35.9276 81.5338 29.396 78.0896 23.5734C74.6454 17.7371 60.8002 23.5277 60.8002 23.5277C60.8002 23.5277 32.5516 38.1597 17.5628 54.7356C11.8363 61.075 6.66771 62.7857 3.44309 60.8784C-0.65972 58.4542 -1.6111 50.1799 3.44309 38.1459C4.81527 34.8802 6.63112 31.3354 8.94553 27.5527V27.5664C8.94553 27.5664 25.1464 8.0129 58.751 1.86554C66.1013 0.51623 74.2795 -0.188155 83.3085 0.0954284C83.3085 0.0954284 87.736 0.0954285 92.3374 1.86554C95.8182 3.20113 99.395 5.55212 101.229 9.68238C105.478 19.2556 96.3259 28.1839 96.3259 28.1839C96.3259 28.1839 47.2659 74.9981 32.73 106.979C32.73 106.979 29.853 114.306 36.1421 111.64C42.4313 108.969 79.105 88.8708 108.438 59.2317C108.438 59.2317 122.15 43.5935 131.079 50.6099C140.002 57.6309 125.338 76.7728 125.338 76.7728C125.338 76.7728 108.762 95.2743 117.366 103.571C125.969 111.85 149.447 84.1185 176.612 33.7138C187.219 14.0688 199.747 5.27769 211.086 1.86554C221.583 -1.29505 231.06 0.15489 237.057 1.86554C241.205 3.05019 243.689 4.3629 243.689 4.3629C243.689 4.3629 252.292 10.4279 241.763 12.9665Z" fill="#D10025"/>
</svg>
